# xmcd
#
# Track frame offsets:
#	150
#	10241
#	21086
#	30746
#	41776
#	51660
#	61324
#	72543
#	82689
#	91972
#	103839
#	116024
#	129634
#	140513
#	149896
#	161706
#	172513
#	181918
#	191655
#	202504
#	214112
#	225500
#	235587
#	244763
#	255732
#	266059
#	278097
#	289342
#
# Disc length: 4046 seconds
#
# Revision: 1
# Processed by: cddbd v1.5.2PL0 Copyright (c) Steve Scherf et al.
# Submitted via: audiograbber 1.83.01
#
DISCID=990fcc1c
DTITLE=BRENDA LEE - Queen Of Rock'n Roll
DYEAR=2009
DGENRE=Rock and Roll
TTITLE0=Rock The Bop(1957)
TTITLE1=Little Jonah(1958)
TTITLE2=Jambalaya(On The Bayou 1956)
TTITLE3=Anybody But Me(1961)
TTITLE4=Here Comes That Feelin(1962)
TTITLE5=Let The Four Winds Blow(1975)
TTITLE6=That's All You Gotta Do(1960)
TTITLE7=Bigelow 6-200(1956)
TTITLE8=Dynamite(1957)
TTITLE9=Kansas City(1961)
TTITLE10=Crazy Talk(1961)
TTITLE11=Weep No More My Baby(1959)
TTITLE12=Sweet Nothin's(1959)
TTITLE13=Rockin' Around The Christmas Tree(1958)
TTITLE14=Talkin' Bout You(1961)
TTITLE15=Bill Bailey, Won't You Please Come Home?(1958)
TTITLE16=Love You Till I Die(1957)
TTITLE17=Hummin' The Blues Over You(1959)
TTITLE18=Dum Dum(1961)
TTITLE19=Let's Jump The Broomstick(1959)
TTITLE20=The Stroll(1975)
TTITLE21=My Baby Likes Western Guys(1960)
TTITLE22=Ring-A-My Phone(1958)
TTITLE23=Just A Little(1960)
TTITLE24=Rock-A-Bye Baby Blues(1957)
TTITLE25=One Step At A Time(1957)
TTITLE26=Is It True(1964)
TTITLE27=What'D I Say(1964)
EXTD=
EXTT0=
EXTT1=
EXTT2=
EXTT3=
EXTT4=
EXTT5=
EXTT6=
EXTT7=
EXTT8=
EXTT9=
EXTT10=
EXTT11=
EXTT12=
EXTT13=
EXTT14=
EXTT15=
EXTT16=
EXTT17=
EXTT18=
EXTT19=
EXTT20=
EXTT21=
EXTT22=
EXTT23=
EXTT24=
EXTT25=
EXTT26=
EXTT27=
PLAYORDER=
